<?xml version="1.0" standalone="no"?>
<!DOCTYPE svg PUBLIC "-//W3C//DTD SVG 20010904//EN"
 "http://www.w3.org/TR/2001/REC-SVG-20010904/DTD/svg10.dtd">
<svg version="1.0" xmlns="http://www.w3.org/2000/svg"
 width="1280.000000pt" height="640.000000pt" viewBox="0 0 1280.000000 640.000000"
 preserveAspectRatio="xMidYMid meet">
<g transform="translate(0.000000,640.000000) scale(0.100000,-0.100000)"
fill="#000000" stroke="none">
<path d="M4555 5073 c-371 -85 -747 -224 -1145 -423 -99 -49 -184 -90 -190
-90 -22 0 -6 25 73 118 46 53 104 124 129 157 56 75 151 225 145 231 -2 3 -89
-68 -193 -157 -104 -89 -289 -243 -411 -342 -122 -100 -221 -182 -219 -184 1
-2 61 10 132 27 264 60 586 107 889 130 179 13 579 13 760 0 393 -29 837 -109
1185 -215 47 -14 176 -46 287 -70 378 -83 768 -190 1090 -299 129 -43 170 -53
203 -49 45 6 60 19 33 27 -10 3 -98 28 -196 56 -288 82 -449 145 -559 217 -21
14 -38 31 -38 37 0 7 26 23 58 36 79 31 252 122 252 131 0 9 -40 18 -260 58
-312 56 -575 93 -805 111 -216 16 -245 20 -245 33 1 7 37 37 82 67 45 30 136
95 203 145 l120 90 -70 8 c-96 12 -294 -5 -490 -43 -249 -48 -326 -58 -520
-70 -304 -18 -398 -36 -565 -107 -257 -110 -264 -102 -42 50 87 59 196 137
242 174 99 80 199 172 185 172 -5 0 -59 -12 -120 -26z"/>
<path d="M12365 4841 c-165 -86 -466 -248 -670 -358 -692 -375 -949 -506
-1271 -648 -407 -181 -805 -309 -1124 -361 -58 -10 -109 -21 -114 -25 -5 -4 6
-41 24 -83 l34 -76 42 0 c56 0 321 34 509 66 439 74 958 199 1488 359 337 101
690 215 713 230 12 7 76 107 144 222 265 451 346 576 477 741 41 50 68 92 61
92 -7 0 -148 -72 -313 -159z"/>
<path d="M3860 4469 c-233 -12 -508 -45 -755 -90 -144 -26 -145 -27 -145 -52
0 -40 58 -245 84 -294 27 -54 50 -77 150 -151 94 -71 248 -125 391 -139 59 -5
61 -5 135 45 205 137 355 333 444 580 41 114 42 112 -61 111 -49 -1 -158 -6
-243 -10z"/>
<path d="M4338 4464 c-3 -5 -18 -47 -33 -94 -71 -217 -177 -393 -329 -544
l-100 -99 90 7 c381 29 670 168 888 426 75 89 169 231 158 241 -26 26 -662 85
-674 63z"/>
<path d="M5118 4303 c-135 -232 -342 -438 -548 -543 l-45 -24 40 -9 c142 -31
251 -63 323 -94 l83 -35 147 31 c81 18 196 48 255 67 260 84 527 82 805 -7 52
-17 96 -28 98 -26 12 12 -104 266 -177 388 -18 30 -35 67 -38 84 -7 29 -9 30
-146 61 -77 17 -206 50 -287 73 -121 35 -435 111 -459 111 -4 0 -27 -35 -51
-77z"/>
<path d="M2660 4280 c-248 -67 -222 -52 -274 -155 -24 -49 -43 -91 -41 -93 2
-2 41 4 87 14 110 24 331 24 403 1 27 -9 51 -14 53 -12 2 2 -8 50 -23 107 -14
57 -31 120 -36 141 -5 20 -13 37 -17 36 -4 0 -72 -18 -152 -39z"/>
<path d="M2150 4124 c-148 -53 -353 -159 -630 -327 l-255 -153 -72 -108 c-40
-60 -82 -134 -94 -165 -27 -71 -47 -197 -34 -215 6 -7 33 -41 60 -75 102 -127
185 -299 185 -386 0 -19 5 -37 11 -41 15 -9 123 98 170 169 48 74 65 147 49
221 -6 31 -20 62 -32 72 -51 46 -61 130 -28 237 25 82 51 114 103 128 99 29
507 409 612 572 31 48 55 91 53 96 -2 5 -46 -6 -98 -25z"/>
<path d="M6222 4112 c2 -4 28 -57 60 -117 66 -129 109 -235 143 -351 13 -46
34 -97 46 -113 16 -22 20 -37 15 -58 -4 -15 -9 -77 -11 -138 -5 -197 -48 -314
-157 -430 -210 -225 -514 -316 -762 -229 -22 8 -41 13 -43 11 -5 -5 79 -193
135 -302 60 -119 155 -215 262 -267 78 -37 227 -88 260 -88 28 0 162 109 280
229 203 206 330 427 388 676 68 289 44 603 -73 974 l-25 78 -127 36 c-170 48
-361 97 -380 97 -8 0 -13 -4 -11 -8z"/>
<path d="M2510 3923 c-58 -9 -176 -37 -232 -54 -54 -16 -72 -30 -172 -126 -61
-60 -157 -144 -214 -186 l-102 -78 20 -27 c26 -35 39 -180 21 -234 -13 -38
-83 -110 -126 -130 -14 -6 -25 -15 -25 -19 0 -4 15 -61 34 -127 51 -174 118
-277 284 -433 260 -243 738 -459 1016 -459 201 0 423 148 518 345 42 88 43 93
49 220 3 71 3 133 0 137 -10 11 -147 -52 -226 -103 -38 -25 -103 -73 -144
-107 -58 -49 -77 -60 -91 -52 -10 5 -21 17 -25 27 -8 22 61 86 188 174 169
117 320 169 487 169 220 0 406 -88 615 -291 l100 -97 622 373 c413 248 649
384 704 405 46 18 160 52 253 76 224 58 360 124 343 167 -3 7 -37 30 -76 51
-273 143 -662 177 -929 81 -170 -61 -928 -211 -1347 -267 -140 -18 -219 -22
-445 -23 -255 0 -282 2 -365 23 -98 25 -208 78 -213 102 -1 9 4 24 12 35 15
20 15 20 63 -7 90 -50 323 -99 323 -68 0 32 -71 133 -149 211 -69 69 -111 99
-212 157 -151 86 -216 116 -287 131 -50 10 -217 13 -272 4z m19 -355 c17 -28
40 -88 53 -132 21 -74 23 -101 23 -306 0 -200 -3 -237 -23 -330 -13 -57 -35
-134 -48 -170 -36 -95 -102 -186 -121 -166 -2 2 12 55 31 118 57 188 77 313
83 503 5 189 -8 307 -51 455 -13 46 -22 88 -20 92 10 16 45 -14 73 -64z m242
7 c42 -95 51 -175 46 -400 -5 -233 -25 -366 -77 -528 -34 -104 -83 -197 -105
-197 -20 0 -19 2 11 101 60 198 99 420 110 624 6 107 1 195 -22 388 -8 71 8
77 37 12z m-511 -55 c40 -56 100 -197 121 -286 40 -164 25 -371 -38 -548 -36
-101 -102 -236 -115 -236 -12 0 -10 14 21 160 59 279 56 596 -9 849 -11 44
-20 82 -20 85 0 15 21 3 40 -24z"/>
<path d="M6920 3926 c0 -2 13 -45 30 -95 35 -109 68 -273 78 -396 l7 -89 66
79 c71 85 229 242 292 289 20 16 37 31 37 35 0 8 -60 31 -314 117 -198 67
-196 66 -196 60z"/>
<path d="M11919 3836 c-7 -8 -609 -194 -839 -260 -597 -171 -1189 -296 -1665
-351 -76 -9 -140 -17 -141 -18 -1 -1 8 -47 21 -102 22 -99 23 -100 51 -99 16
1 178 7 359 15 329 13 1354 19 1785 9 l225 -5 7 80 c17 188 84 424 177 619 28
60 51 111 51 112 0 5 -26 5 -31 0z"/>
<path d="M7498 3623 c-117 -93 -274 -253 -347 -352 -103 -139 -136 -205 -161
-316 -81 -359 -264 -681 -502 -883 -43 -36 -78 -69 -78 -74 0 -11 35 -10 145
2 150 17 266 54 431 135 144 70 155 78 220 150 189 210 337 497 430 832 38
138 104 452 104 494 0 24 -8 29 -71 53 -38 14 -74 26 -79 26 -4 0 -46 -30 -92
-67z"/>
<path d="M4165 3625 c-178 -35 -417 -40 -603 -14 -41 6 -76 9 -78 6 -3 -3 8
-27 25 -54 17 -27 42 -75 56 -106 31 -66 16 -63 236 -47 231 18 809 104 914
137 19 6 18 6 -3 14 -30 11 -372 70 -432 74 -25 2 -76 -3 -115 -10z"/>
<path d="M7855 3483 c-76 -430 -206 -799 -374 -1060 -28 -44 -51 -82 -51 -85
0 -2 39 4 88 15 61 13 136 20 252 21 148 3 170 5 208 25 156 80 279 295 362
633 31 127 74 380 68 399 -2 7 -55 22 -118 35 -63 13 -179 44 -256 69 -78 25
-146 45 -152 45 -5 0 -17 -44 -27 -97z"/>
<path d="M873 3442 c-62 -31 -113 -59 -113 -63 0 -5 144 -93 166 -102 4 -1 14
27 24 63 9 36 26 86 38 113 14 31 17 47 9 46 -7 0 -63 -26 -124 -57z"/>
<path d="M1629 3403 c-68 -58 -92 -181 -44 -228 69 -70 161 11 173 151 4 53 2
64 -17 83 -29 29 -73 27 -112 -6z m42 -92 c20 -16 22 -23 13 -38 -18 -29 -57
-23 -68 10 -8 22 -7 30 4 37 21 13 25 13 51 -9z"/>
<path d="M8545 3405 c-2 -11 -14 -81 -25 -155 -62 -388 -175 -682 -327 -849
l-63 -70 57 -11 c32 -6 75 -16 95 -21 21 -5 137 -30 259 -54 209 -42 225 -44
297 -34 91 12 90 12 161 154 152 306 157 601 16 955 l-42 104 -212 1 c-204 0
-212 -1 -216 -20z"/>
<path d="M6275 3308 c-27 -11 -111 -35 -185 -54 -167 -43 -250 -69 -315 -102
-67 -33 -363 -210 -370 -222 -6 -10 72 -68 135 -100 101 -51 237 -64 354 -34
97 25 212 91 292 166 78 74 116 135 139 223 16 62 20 145 8 144 -5 0 -30 -9
-58 -21z"/>
<path d="M430 3230 c-80 -38 -192 -92 -250 -119 -58 -27 -123 -65 -145 -85
l-40 -34 55 -57 c95 -98 190 -169 370 -277 252 -151 342 -198 379 -198 45 0
223 37 299 61 76 25 86 43 80 145 -10 150 -154 369 -323 489 -84 59 -239 145
-261 144 -11 0 -84 -31 -164 -69z"/>
<path d="M9970 2954 c-36 -2 -193 -8 -350 -14 -157 -6 -288 -14 -291 -18 -4
-4 -8 -68 -10 -142 l-4 -134 35 -8 c426 -94 846 -152 1625 -223 242 -22 616
-59 822 -81 l62 -7 -29 71 c-53 124 -110 388 -110 505 0 24 -6 37 -17 42 -17
8 -1603 16 -1733 9z"/>
<path d="M4870 2614 c-206 -125 -381 -229 -388 -231 -6 -3 -61 44 -121 104
-177 180 -338 271 -516 295 -114 16 -115 15 -115 -80 0 -160 54 -287 175 -407
128 -129 292 -202 475 -212 82 -4 107 -1 185 21 287 84 538 281 640 501 44 94
72 235 47 235 -4 0 -176 -102 -382 -226z"/>
<path d="M9182 2684 c-17 -114 -54 -228 -113 -348 -27 -55 -49 -101 -49 -103
0 -3 17 -3 38 -1 l37 3 43 108 c49 122 88 267 98 362 7 64 6 65 -18 65 -23 0
-25 -5 -36 -86z"/>
<path d="M1521 2649 c-130 -141 -261 -223 -426 -270 -44 -12 -84 -26 -89 -30
-13 -12 374 -190 612 -283 l43 -16 13 32 c54 130 60 343 14 453 -14 33 -39 90
-54 127 -16 37 -31 68 -34 67 -3 0 -38 -36 -79 -80z"/>
<path d="M5365 2635 c-83 -212 -207 -359 -420 -500 -154 -102 -216 -185 -265
-357 -23 -77 -39 -332 -23 -354 5 -6 63 -14 140 -17 l131 -6 109 112 c232 241
373 502 414 770 18 116 8 190 -38 287 -33 70 -42 81 -48 65z"/>
<path d="M9280 2528 c-6 -24 -14 -51 -16 -61 -7 -21 28 -37 159 -72 129 -35
332 -70 617 -105 332 -41 294 -35 1567 -276 303 -57 559 -104 569 -104 11 0
-13 31 -67 88 -47 48 -111 122 -143 165 -32 42 -68 79 -80 82 -27 6 -430 49
-711 75 -1006 94 -1374 141 -1775 229 -52 12 -97 21 -102 21 -4 0 -12 -19 -18
-42z"/>
<path d="M9206 2304 c-15 -37 -25 -69 -22 -71 3 -3 56 -9 119 -14 242 -18 429
-53 927 -174 364 -88 532 -123 720 -150 543 -77 1086 -200 1574 -356 103 -33
190 -58 192 -56 2 2 -42 39 -98 82 -57 44 -147 114 -200 158 l-97 79 -393 74
c-1545 293 -1558 296 -1863 334 -402 50 -560 79 -727 130 -53 17 -98 30 -101
30 -3 0 -17 -30 -31 -66z"/>
<path d="M2006 2308 c45 -76 224 -284 362 -422 l110 -109 122 -33 c120 -33
140 -35 140 -11 0 24 48 114 80 151 19 21 29 41 24 45 -5 5 -49 18 -99 30
-197 49 -436 158 -626 286 -61 41 -113 75 -115 75 -3 0 -2 -6 2 -12z"/>
<path d="M1841 2186 c-6 -35 -20 -89 -31 -121 -16 -46 -17 -60 -8 -67 21 -12
358 -128 375 -128 8 0 -31 48 -87 107 -56 59 -129 145 -163 190 -34 45 -65 82
-68 83 -4 0 -12 -29 -18 -64z"/>
<path d="M7560 2224 c-122 -26 -205 -58 -413 -161 -114 -56 -242 -115 -285
-129 -42 -15 -79 -29 -81 -30 -2 -2 20 -26 48 -53 61 -59 106 -148 116 -227
l7 -56 46 7 c72 11 422 109 572 160 179 62 305 114 545 227 110 52 230 107
268 123 37 15 67 31 67 35 0 7 -397 93 -510 110 -92 14 -303 11 -380 -6z"/>
<path d="M5571 2161 c-50 -235 -182 -481 -356 -669 -43 -46 -74 -86 -70 -90
11 -11 597 -5 758 7 286 23 542 56 795 102 l112 21 0 52 c0 70 -41 150 -97
193 -77 57 -142 75 -303 84 -171 9 -228 19 -375 66 -173 55 -275 113 -371 208
l-82 81 -11 -55z"/>
<path d="M3790 2201 c0 -24 71 -151 130 -231 83 -113 296 -323 448 -440 68
-52 129 -96 136 -98 11 -2 15 31 19 150 5 158 16 219 62 331 l23 59 -36 -7
c-187 -36 -345 -16 -519 65 -92 43 -158 86 -220 143 -24 22 -43 34 -43 28z"/>
<path d="M3634 2164 c-57 -161 -152 -362 -239 -509 -25 -43 -44 -80 -41 -82
12 -13 670 -118 861 -138 l60 -6 -26 23 c-14 13 -77 66 -138 118 -189 159
-323 323 -412 504 -27 55 -51 102 -54 104 -2 3 -8 -4 -11 -14z"/>
<path d="M3415 2054 c-51 -41 -186 -102 -271 -123 -44 -10 -98 -30 -120 -43
-46 -30 -116 -103 -138 -146 -33 -64 -32 -65 147 -105 l162 -37 21 24 c45 51
240 423 233 445 -2 5 -17 -2 -34 -15z"/>
<path d="M8080 1863 c-189 -91 -368 -163 -560 -223 -91 -28 -183 -58 -205 -65
l-40 -13 105 -50 c162 -79 540 -225 580 -225 19 0 105 16 190 37 259 62 589
112 935 141 68 6 77 9 62 20 -16 12 -144 73 -532 253 -82 39 -199 97 -259 131
-60 34 -117 61 -125 60 -9 0 -77 -30 -151 -66z"/>
</g>
</svg>
