<?xml version="1.0" standalone="no"?>
<!DOCTYPE svg PUBLIC "-//W3C//DTD SVG 20010904//EN"
 "http://www.w3.org/TR/2001/REC-SVG-20010904/DTD/svg10.dtd">
<svg version="1.0" xmlns="http://www.w3.org/2000/svg"
 width="1280.000000pt" height="1048.000000pt" viewBox="0 0 1280.000000 1048.000000"
 preserveAspectRatio="xMidYMid meet">
<g transform="translate(0.000000,1048.000000) scale(0.100000,-0.100000)"
fill="#000000" stroke="none">
<path d="M10380 10455 c-323 -70 -565 -213 -664 -395 -30 -54 -85 -275 -93
-369 -8 -96 8 -145 59 -179 37 -24 51 -27 122 -27 101 0 141 18 246 110 150
133 255 180 400 179 107 0 152 -15 270 -85 212 -126 381 -317 460 -521 50
-128 62 -212 63 -438 2 -220 -3 -263 -84 -667 -65 -327 -166 -610 -337 -948
-49 -97 -69 -123 -166 -224 -61 -63 -151 -147 -201 -187 -49 -41 -115 -95
-145 -120 -156 -133 -336 -162 -629 -104 -336 67 -621 98 -981 107 -307 7
-545 -5 -1023 -52 -802 -79 -800 -79 -2137 -275 -190 -28 -439 -64 -555 -81
-159 -23 -227 -37 -280 -59 -117 -48 -182 -60 -316 -60 -108 0 -153 6 -343 45
-249 51 -342 75 -422 111 -70 31 -405 258 -621 421 -193 145 -269 191 -406
248 -292 121 -422 218 -646 479 -138 162 -265 296 -280 296 -5 0 -25 -20 -45
-45 -28 -34 -44 -45 -65 -45 -15 0 -36 -9 -46 -20 -17 -18 -18 -36 -11 -244
10 -309 9 -309 -196 -409 -130 -63 -226 -132 -290 -209 -63 -75 -80 -101 -159
-244 -99 -179 -140 -236 -248 -345 -108 -107 -154 -181 -154 -243 0 -75 196
-431 282 -514 95 -90 205 -119 376 -96 205 27 354 -19 499 -155 28 -27 65 -51
81 -55 45 -11 134 -108 192 -211 58 -101 148 -294 201 -430 l35 -90 -12 -305
c-7 -168 -20 -465 -31 -660 -10 -195 -18 -418 -17 -495 l2 -140 -83 -204 c-96
-236 -114 -273 -195 -401 -161 -256 -429 -610 -619 -817 -199 -217 -528 -537
-579 -564 -39 -21 -57 -24 -174 -24 -116 -1 -135 -3 -174 -24 -24 -13 -62 -29
-83 -37 -22 -7 -52 -23 -68 -34 -31 -22 -90 -133 -90 -169 0 -33 45 -124 76
-152 40 -37 167 -59 374 -66 288 -10 387 17 560 149 92 70 147 102 195 111 17
3 57 16 89 28 52 19 82 44 260 218 243 237 316 296 561 459 234 155 341 231
471 338 93 76 234 217 234 234 0 4 39 36 87 71 116 85 329 293 373 363 19 31
52 79 72 105 45 59 204 181 314 239 45 24 108 65 140 91 82 66 99 69 179 26
54 -29 77 -35 125 -35 33 0 139 -9 237 -20 450 -51 469 -63 679 -440 337 -602
357 -644 503 -1008 128 -322 144 -379 121 -421 -5 -10 -48 -32 -99 -50 -107
-38 -171 -89 -197 -156 -21 -55 -16 -107 21 -223 19 -62 32 -85 48 -92 43 -17
254 -42 407 -47 187 -7 287 6 323 42 48 49 72 204 57 373 -6 59 -14 177 -20
262 -17 250 -47 463 -100 710 -74 344 -217 1158 -207 1183 3 9 48 25 119 42
62 16 129 37 149 47 116 60 1097 41 1604 -31 323 -46 338 -47 436 -21 104 27
166 21 252 -23 78 -41 123 -99 160 -209 62 -181 102 -247 283 -460 102 -120
204 -257 351 -473 168 -246 177 -263 177 -345 1 -88 -22 -130 -146 -271 -240
-273 -390 -428 -424 -439 -21 -7 -63 -9 -113 -5 -77 7 -81 7 -157 -30 -58 -28
-96 -56 -145 -105 -75 -76 -94 -119 -86 -189 23 -180 76 -218 291 -208 114 6
304 18 496 32 l85 6 79 82 c44 45 166 183 272 307 106 124 227 256 269 293 93
84 141 152 239 334 86 161 235 490 243 537 2 17 -9 115 -26 217 -70 428 -96
719 -69 769 24 45 68 39 354 -49 142 -44 336 -104 429 -134 94 -30 219 -64
278 -76 132 -26 214 -55 309 -110 235 -135 334 -278 481 -701 113 -321 146
-446 171 -638 19 -145 57 -220 169 -338 98 -104 114 -107 206 -39 146 108 181
174 181 347 0 54 -5 106 -10 116 -14 23 -152 393 -250 669 -106 297 -142 424
-190 674 -44 226 -71 304 -193 549 -51 103 -53 105 -132 158 -97 65 -131 96
-204 187 -31 39 -92 103 -136 141 -83 73 -128 139 -140 206 -7 37 -36 84 -112
180 -40 52 -42 56 -62 193 -11 77 -27 230 -36 340 -9 110 -20 214 -26 231 -6
21 -6 46 1 78 14 64 1 116 -69 266 -152 324 -171 385 -171 545 0 71 -6 132
-16 170 -55 201 -34 269 191 620 198 309 245 390 309 530 33 72 86 173 119
225 74 116 115 203 163 346 20 60 54 144 76 187 59 119 188 587 213 775 19
144 19 450 0 599 -49 370 -173 700 -381 1015 -70 105 -90 123 -177 158 -32 12
-65 33 -74 46 -24 37 -186 155 -306 224 -200 114 -376 184 -439 173 -24 -3
-59 2 -102 16 -80 26 -131 25 -266 -4z"/>
</g>
</svg>
