<?xml version="1.0" standalone="no"?>
<!DOCTYPE svg PUBLIC "-//W3C//DTD SVG 20010904//EN"
 "http://www.w3.org/TR/2001/REC-SVG-20010904/DTD/svg10.dtd">
<svg version="1.0" xmlns="http://www.w3.org/2000/svg"
 width="840.000000pt" height="438.000000pt" viewBox="0 0 840.000000 438.000000"
 preserveAspectRatio="xMidYMid meet">
<metadata>
Created by potrace 1.16, written by Peter Selinger 2001-2019
</metadata>
<g transform="translate(0.000000,438.000000) scale(0.100000,-0.100000)"
fill="#000000" stroke="none">
<path d="M1895 3943 c-137 -13 -269 -26 -292 -29 l-42 -5 -143 -217 c-209
-315 -188 -268 -188 -420 l0 -131 55 -33 c30 -18 55 -37 55 -42 0 -5 -31 -50
-68 -100 -38 -50 -74 -101 -80 -113 -7 -13 -12 -71 -12 -148 0 -142 -8 -124
99 -217 30 -26 53 -49 50 -51 -2 -3 -92 8 -199 23 -148 21 -199 24 -213 16
-10 -6 -54 -96 -98 -201 -44 -104 -86 -203 -93 -220 -30 -67 -160 -371 -211
-495 -43 -103 -102 -245 -204 -484 l-101 -238 0 -112 c0 -61 4 -117 8 -124 7
-11 226 -111 357 -163 28 -11 88 -38 135 -59 183 -82 310 -132 323 -127 7 3
24 40 37 84 12 43 55 184 95 313 40 129 76 250 80 267 7 35 29 44 38 16 3 -10
24 -49 46 -88 23 -38 60 -105 83 -147 23 -43 47 -78 54 -78 12 0 34 25 169
193 48 59 90 106 92 103 3 -3 11 -114 18 -248 22 -409 27 -459 41 -465 7 -3
75 9 151 25 76 17 183 40 238 51 55 11 142 29 194 41 l95 21 155 -30 c309 -61
315 -61 327 -46 5 7 23 89 38 181 15 93 28 170 30 171 8 8 236 37 241 31 4 -3
24 -90 44 -192 21 -103 41 -189 44 -192 6 -7 88 7 367 60 96 19 178 32 183 29
4 -2 7 -16 7 -31 0 -55 5 -57 157 -44 368 32 490 44 511 53 21 8 22 14 22 104
0 58 4 94 9 90 6 -3 42 -56 80 -118 39 -62 81 -125 94 -141 l23 -28 111 51
c61 28 131 58 155 67 24 10 48 21 54 25 9 7 154 69 162 69 1 0 2 -40 2 -89 0
-68 3 -90 14 -94 8 -3 97 0 198 8 101 8 240 18 311 23 70 5 132 13 137 18 5 5
26 109 47 232 21 122 41 222 44 222 4 0 25 -55 48 -122 64 -186 67 -192 92
-205 13 -7 190 -66 392 -133 l368 -120 117 51 c64 28 128 58 142 65 28 15 241
114 245 114 2 0 51 23 109 50 58 28 110 50 114 50 21 0 29 27 193 683 32 130
39 175 39 255 l0 98 -77 109 c-42 61 -89 128 -104 150 -262 376 -296 420 -330
432 -19 6 -80 16 -134 22 -227 24 -305 35 -305 40 0 4 28 20 63 36 l62 30 3
139 3 138 -48 42 c-26 22 -64 57 -84 76 l-37 35 24 140 c69 408 75 454 72 551
l-3 99 -205 123 c-112 67 -205 122 -206 122 -2 0 -30 16 -64 36 l-60 37 -113
-18 c-61 -9 -148 -23 -192 -31 -44 -7 -132 -20 -195 -29 -151 -20 -265 -41
-279 -49 -6 -4 -11 -21 -11 -38 0 -29 -1 -30 -32 -24 -18 4 -73 13 -123 21
-49 8 -126 21 -170 29 -379 66 -456 78 -461 73 -3 -3 -17 -43 -30 -88 -13 -45
-26 -84 -28 -87 -3 -2 -33 11 -68 30 -35 19 -118 66 -186 103 l-123 68 -67
-12 c-37 -6 -150 -27 -252 -46 -102 -19 -243 -45 -315 -57 -71 -12 -136 -26
-142 -31 -8 -6 -13 -36 -13 -83 0 -40 -3 -75 -7 -77 -12 -7 -428 49 -445 60
-5 2 -8 28 -8 58 0 30 -4 57 -10 60 -17 11 -678 77 -691 69 -4 -2 -9 -17 -12
-34 -4 -16 -10 -30 -14 -30 -5 0 -60 41 -123 91 -129 101 -171 130 -191 128
-8 -1 -126 -12 -264 -26z m346 -155 c240 -184 289 -224 289 -234 0 -10 -81
-120 -146 -198 -18 -22 -39 -36 -48 -34 -15 3 -190 121 -299 201 -48 35 -53
37 -65 20 -27 -36 -82 -134 -82 -146 1 -7 136 -102 300 -211 165 -109 300
-204 300 -210 0 -6 -10 -31 -21 -56 -12 -25 -55 -124 -96 -220 -41 -96 -82
-182 -91 -192 -15 -14 -52 -16 -307 -19 -159 -1 -296 -1 -302 0 -10 1 -140
105 -163 131 -3 3 -51 45 -107 93 -57 48 -103 93 -103 99 0 12 182 259 204
277 10 8 31 -4 87 -52 41 -34 117 -99 170 -144 l97 -82 24 27 c13 15 44 53 67
86 34 46 41 60 30 67 -225 132 -624 389 -623 400 1 17 245 389 266 407 8 6 86
18 174 27 87 9 193 19 234 24 41 5 84 9 96 10 11 0 61 -31 115 -71z m4421
-119 l220 -131 -5 -46 c-10 -95 -58 -388 -67 -409 -5 -13 -55 -52 -110 -89
-55 -36 -100 -68 -100 -70 0 -6 45 -46 197 -176 73 -62 132 -118 133 -124 0
-7 -19 -19 -42 -29 -24 -9 -56 -23 -73 -30 -104 -47 -243 -104 -260 -107 -20
-3 -49 36 -228 316 -37 58 -72 106 -77 106 -7 0 -9 -72 -8 -202 l3 -203 -158
-14 c-92 -8 -162 -10 -167 -5 -5 5 -16 77 -24 159 -9 83 -27 258 -41 390 -29
263 -29 262 10 494 30 177 28 191 -27 191 -16 0 -27 4 -24 9 5 7 77 21 191 36
99 13 313 47 345 55 76 18 86 14 312 -121z m-2172 55 c56 -32 149 -83 260
-142 124 -65 122 -63 110 -152 -25 -193 -51 -353 -60 -370 -5 -10 -62 -67
-126 -128 l-116 -110 -62 -6 c-33 -3 -95 -7 -136 -8 -123 -2 -114 12 -106
-159 5 -100 3 -149 -4 -154 -18 -11 -312 -37 -321 -28 -5 5 -16 69 -24 143 -8
74 -22 182 -29 240 -35 253 -39 349 -21 450 43 253 45 233 -25 244 -34 5 -38
9 -43 43 -4 21 -3 41 2 46 4 4 68 19 142 33 74 14 202 38 284 54 190 36 218
36 275 4z m600 -14 c58 -10 173 -31 255 -45 232 -40 409 -76 417 -83 5 -6 -40
-300 -49 -311 -3 -4 -190 50 -332 95 -40 13 -77 24 -81 24 -8 0 -63 -190 -57
-197 2 -2 86 -6 186 -10 100 -3 183 -9 186 -12 5 -8 -29 -248 -36 -255 -3 -3
-30 -2 -60 4 -157 29 -295 48 -300 42 -4 -4 0 -52 10 -107 l16 -100 30 1 c17
0 117 13 223 29 119 18 196 25 201 19 14 -14 53 -316 42 -327 -8 -8 -890 20
-899 28 -8 7 -40 184 -59 323 -6 43 -5 45 61 111 l68 68 24 159 c29 192 42
281 50 355 6 55 6 58 -22 75 -16 10 -30 19 -32 20 -3 2 13 71 23 102 6 16 10
15 135 -8z m-2345 -20 c96 -11 139 -15 248 -25 47 -5 70 -11 74 -22 6 -15 -16
-163 -83 -566 -32 -193 -35 -235 -15 -223 4 3 61 8 127 11 65 3 139 8 163 11
l44 6 -7 111 c-3 62 -8 173 -12 247 -3 74 -7 158 -9 186 -5 81 -9 80 176 55
260 -35 300 -42 305 -55 5 -14 -103 -674 -114 -692 -4 -6 -54 -66 -112 -133
l-105 -121 -121 0 c-66 0 -203 3 -304 7 l-183 6 -144 131 c-165 149 -158 128
-98 269 41 99 41 132 -3 172 l-26 24 12 161 11 161 46 62 c40 54 46 67 41 97
-3 22 -17 45 -36 62 -16 15 -30 37 -30 48 0 24 19 25 155 10z m-1509 -1376
c67 -9 127 -20 133 -23 6 -4 49 -119 94 -256 46 -137 88 -250 95 -253 6 -2 22
18 35 45 66 134 211 410 222 421 17 19 402 -34 414 -57 5 -9 23 -90 40 -181
17 -91 38 -194 46 -230 8 -36 23 -112 35 -170 11 -58 36 -184 55 -280 122
-609 126 -633 115 -640 -6 -4 -70 -19 -143 -34 -73 -15 -206 -43 -296 -62 -90
-19 -169 -33 -176 -30 -11 4 -18 94 -40 461 -16 274 -28 431 -32 435 -3 3 -14
-6 -25 -20 -11 -14 -34 -43 -53 -65 -18 -22 -83 -103 -144 -180 -62 -77 -117
-140 -124 -140 -6 0 -18 14 -28 30 -9 17 -60 110 -114 208 -94 171 -110 195
-122 183 -3 -3 -20 -54 -38 -113 -52 -173 -163 -540 -192 -633 -15 -47 -30
-90 -35 -97 -8 -10 -252 89 -475 192 -29 14 -63 27 -77 31 -14 3 -27 11 -29
18 -3 7 15 60 39 117 25 57 62 145 84 194 21 50 75 178 120 285 45 107 85 204
90 215 5 11 57 133 115 270 58 138 114 269 125 293 11 23 20 48 20 55 0 7 6
19 13 26 13 14 48 12 253 -15z m3572 -35 c59 -34 121 -70 137 -80 17 -10 62
-36 100 -58 39 -23 113 -67 165 -99 l95 -57 -1 -53 c-1 -29 -9 -85 -18 -125
-9 -39 -25 -121 -36 -182 -11 -60 -25 -133 -31 -162 l-10 -52 -92 -54 c-51
-30 -114 -67 -140 -82 -57 -32 -68 -52 -41 -72 10 -8 30 -24 44 -36 26 -22
260 -220 293 -247 65 -53 80 -69 75 -81 -4 -8 -66 -41 -140 -73 -73 -33 -179
-81 -236 -108 -57 -26 -112 -48 -122 -48 -12 0 -30 16 -46 43 -15 23 -55 85
-89 137 -34 52 -106 162 -159 243 -53 81 -101 145 -106 142 -5 -3 -6 -81 -2
-193 4 -103 7 -221 7 -262 l0 -75 -110 -12 c-60 -6 -131 -12 -156 -12 l-45 -1
-37 113 c-20 61 -63 189 -96 284 -39 112 -64 200 -70 255 -11 80 -35 295 -67
583 -9 77 -22 182 -28 234 -10 73 -10 96 0 105 6 7 97 27 200 44 414 71 600
100 627 101 17 1 70 -23 135 -60z m1010 -60 c139 -34 260 -68 269 -74 19 -14
13 -59 -53 -420 -20 -104 -51 -280 -69 -390 -19 -110 -50 -290 -70 -400 -20
-110 -39 -219 -42 -242 -9 -69 7 -64 -335 -88 l-98 -6 0 59 c0 56 2 60 29 72
43 18 58 39 66 95 7 53 3 60 -59 112 -31 27 -30 6 -16 353 6 140 17 418 25
618 8 200 17 368 21 374 9 14 40 8 332 -63z m-2818 22 c102 -11 243 -26 314
-33 87 -8 135 -18 147 -28 9 -8 34 -64 54 -125 90 -266 324 -946 354 -1030 59
-162 101 -300 97 -312 -3 -7 -13 -13 -23 -13 -10 0 -123 -21 -251 -46 -155
-30 -237 -43 -244 -36 -9 9 -45 159 -78 326 l-12 58 -36 -5 c-241 -33 -409
-60 -415 -66 -4 -5 -17 -64 -27 -132 -17 -109 -37 -199 -43 -199 -8 0 -152 32
-154 34 -11 11 -163 787 -163 831 0 19 11 69 25 112 23 76 156 538 177 618 15
55 34 75 67 70 14 -3 109 -14 211 -24z m3700 -36 c69 -8 141 -17 160 -20 19
-2 112 -14 207 -25 226 -27 265 -35 281 -57 59 -82 324 -461 358 -513 l43 -65
-64 -255 c-35 -140 -74 -293 -85 -340 -12 -47 -29 -92 -38 -101 -9 -9 -66 -39
-127 -66 -60 -27 -200 -91 -310 -141 l-200 -92 -315 104 c-173 57 -327 109
-341 116 -19 9 -31 30 -52 88 -148 431 -140 401 -128 462 14 74 35 188 62 344
l23 129 70 91 c240 313 277 356 305 356 14 0 83 -7 151 -15z"/>
<path d="M6228 3288 c2 -106 7 -197 11 -201 4 -4 57 0 117 10 l109 19 12 69
c6 39 15 100 18 136 l7 65 -127 47 c-69 26 -132 47 -139 47 -10 0 -12 -42 -8
-192z"/>
<path d="M4215 3319 c11 -224 13 -241 22 -250 9 -9 210 27 225 40 9 8 41 215
36 238 -2 13 -137 68 -272 110 -18 6 -19 1 -11 -138z"/>
<path d="M4419 1906 c-5 -6 11 -460 17 -465 5 -5 283 55 291 63 10 10 36 307
27 315 -8 8 -303 91 -322 91 -5 0 -11 -2 -13 -4z"/>
<path d="M3045 1778 c-8 -23 -74 -422 -70 -426 2 -2 74 -6 161 -9 l157 -5 -7
23 c-3 13 -24 111 -46 218 -22 107 -46 198 -52 203 -21 13 -138 10 -143 -4z"/>
<path d="M6699 1558 c-39 -68 -80 -137 -90 -154 -11 -17 -19 -35 -19 -40 1 -9
29 -41 173 -194 l79 -84 155 78 155 77 -7 72 c-12 124 -32 267 -37 273 -3 3
-70 22 -149 43 -79 21 -154 41 -166 45 -19 6 -29 -7 -94 -116z"/>
<path d="M7830 601 c0 -6 15 -11 33 -13 l32 -3 3 -87 c1 -49 7 -88 12 -88 5 0
11 39 12 88 l3 87 33 3 c64 6 30 22 -48 22 -44 0 -80 -4 -80 -9z"/>
<path d="M8020 511 c0 -113 17 -139 22 -33 l3 67 24 -52 c13 -29 30 -53 37
-53 7 0 23 21 36 48 l23 47 3 -63 c4 -77 25 -81 24 -4 0 29 -1 72 -1 97 -1 25
-5 45 -11 45 -5 0 -22 -27 -37 -60 -15 -33 -31 -60 -36 -60 -4 0 -20 26 -35
57 -42 88 -52 81 -52 -36z"/>
</g>
</svg>
